<?xml version="1.0" encoding="UTF-8" standalone="no"?>
<svg
   xmlns:dc="http://purl.org/dc/elements/1.1/"
   xmlns:cc="http://creativecommons.org/ns#"
   xmlns:rdf="http://www.w3.org/1999/02/22-rdf-syntax-ns#"
   xmlns:svg="http://www.w3.org/2000/svg"
   xmlns="http://www.w3.org/2000/svg"
   xmlns:sodipodi="http://sodipodi.sourceforge.net/DTD/sodipodi-0.dtd"
   xmlns:inkscape="http://www.inkscape.org/namespaces/inkscape"
   id="图层_1"
   viewBox="0 0 3839.9999 2160"
   width="3840"
   height="2160"
   version="1.1"
   inkscape:version="0.91 r13725"
   sodipodi:docname="Day.svg">
  <metadata
     id="metadata66">
    <rdf:RDF>
      <cc:Work
         rdf:about="">
        <dc:format>image/svg+xml</dc:format>
        <dc:type
           rdf:resource="http://purl.org/dc/dcmitype/StillImage" />
        <dc:title />
      </cc:Work>
    </rdf:RDF>
  </metadata>
  <defs
     id="defs64" />
  <sodipodi:namedview
     pagecolor="#ffffff"
     bordercolor="#666666"
     borderopacity="1"
     objecttolerance="10000"
     gridtolerance="10000"
     guidetolerance="10000"
     inkscape:pageopacity="0"
     inkscape:pageshadow="2"
     inkscape:window-width="1080"
     inkscape:window-height="1883"
     id="namedview62"
     showgrid="false"
     inkscape:zoom="1.8101934"
     inkscape:cx="1126.1858"
     inkscape:cy="1651.3913"
     inkscape:window-x="1920"
     inkscape:window-y="0"
     inkscape:window-maximized="1"
     inkscape:current-layer="图层_1"
     fit-margin-top="0"
     fit-margin-left="0"
     fit-margin-right="0"
     fit-margin-bottom="0" />
  <style
     id="style3">.st0{fill:#00657f}.st1{opacity:.2;fill:#60e6ff;enable-background:new}.st2{opacity:.6}.st3,.st4,.st5,.st6,.st7{opacity:.95;fill:#2ed3ff;enable-background:new}.st4,.st5,.st6,.st7{opacity:.97;fill:#03dfff}.st5,.st6,.st7{opacity:.6;fill:#01e6ff}.st6,.st7{opacity:.95;fill:#b3e0f8}.st7{opacity:.97}.st8{fill:#f39a4f}.st9{fill:#f7d16c}.st10{fill:#ffc04a}.st11{opacity:.95;fill:#fff;enable-background:new}.st12{fill:#dbdba4}.st13{fill:#f1f1f1}.st14{opacity:.6;fill:#f7d16c;enable-background:new}.st15{fill:#fff}.st16{font-family:'Noto Sans'}.st17{font-size:146.96px}.st18{opacity:.6;fill:#ccc;enable-background:new}.st19{font-size:115.296px}.st20{fill:none}.st21{fill:#f2f2f2}.st22{font-size:37.5557px}.st23{letter-spacing:1}.st24{letter-spacing:2}</style>
  <path
     class="st0"
     id="rect5"
     d="m 0,0.00666024 3840.0001,0 0,2158.79393976 -3840.0001,0 z"
     inkscape:connector-curvature="0"
     style="fill:#00657f" />
  <path
     class="st1"
     id="polygon7"
     d="m 3840.0001,2158.8006 0,-2158.7939398 -949.4989,1.199441 L 652.76801,480.18288 2961.0085,2160 Z"
     inkscape:connector-curvature="0"
     style="opacity:0.2;fill:#60e6ff;enable-background:new" />
  <path
     style="opacity:0.56999996;fill:#2ed3ff;enable-background:new"
     inkscape:connector-curvature="0"
     d="m 2547.5654,1500.5074 -929.1968,658.2932 -1618.368582480001,0 L 2716.083,1208.7434 Z"
     id="polygon11"
     class="st3" />
  <path
     style="opacity:0.58200001;fill:#03dfff;enable-background:new"
     inkscape:connector-curvature="0"
     d="M 2640.2751,1339.8822 2716.083,1208.7434 1.752e-5,1635.5444 l 0,523.2562 z"
     id="polygon13"
     class="st4" />
  <path
     class="st5"
     id="polygon15"
     d="M 3839.9948,2158.3887 1849.5874,476.18876 3839.9948,0 Z"
     inkscape:connector-curvature="0"
     style="opacity:0.6;fill:#01e6ff;enable-background:new" />
  <g
     id="g19"
     transform="matrix(1.0001042,0,0,0.99953416,-5276.1497,-6116.8425)">
    <path
       style="opacity:0.95;fill:#b3e0f8;enable-background:new"
       inkscape:connector-curvature="0"
       id="path21"
       d="M 7618.1,7987.7 7817.7,7642 7618.1,7987.7 Z"
       class="st6" />
    <path
       style="opacity:0.97000002;fill:#b3e0f8;enable-background:new"
       inkscape:connector-curvature="0"
       id="path23"
       d="m 7536.5,7358.5 87.5,95 c 95.1,1 184.2,26.9 261.2,71.5 l 537.6,-931.1 -1609.4,0 537.6,931.1 c 37,-21.4 76.7,-38.5 118.6,-50.6 l 66.9,-115.9 z"
       class="st7" />
    <path
       style="fill:#f39a4f"
       inkscape:connector-curvature="0"
       d="m 7395.7,7602.4 -44.7,-77.4 44.7,77.4 z"
       id="polygon25"
       class="st8" />
    <path
       style="fill:#f39a4f"
       inkscape:connector-curvature="0"
       id="path27"
       d="m 7885.3,7525 -67.6,117 67.6,-117 z"
       class="st8" />
    <path
       style="fill:#f39a4f"
       inkscape:connector-curvature="0"
       d="m 7428.4,7659.1 189.7,328.6 z"
       id="polygon29"
       class="st8" />
    <g
       id="g31">
      <path
         style="fill:#f39a4f"
         inkscape:connector-curvature="0"
         id="path33"
         d="m 7624,7453.5 130.1,141.3 -44,64.3 -281.7,0 189.7,328.6 199.6,-345.7 67.6,-117 c -77,-44.6 -166.2,-70.5 -261.3,-71.5 z"
         class="st8" />
      <path
         style="fill:#f39a4f"
         inkscape:connector-curvature="0"
         id="path35"
         d="m 7351,7525 44.7,77.4 73.9,-128 c -41.9,12.1 -81.7,29.2 -118.6,50.6 z"
         class="st8" />
    </g>
    <path
       style="fill:#f7d16c"
       inkscape:connector-curvature="0"
       d="m 7428.4,7659.1 -32.7,-56.7 32.7,56.7 z"
       id="polygon37"
       class="st9" />
    <g
       id="g39">
      <path
         style="fill:#f7d16c"
         inkscape:connector-curvature="0"
         d="m 7726.9,7431.3 81.6,141.3 -163.2,0 z"
         id="polygon41"
         class="st9" />
      <path
         style="fill:#ffc04a"
         inkscape:connector-curvature="0"
         d="m 7726.9,7431.3 106.2,100.8 -24.6,40.5 z"
         id="polygon43"
         class="st10" />
    </g>
    <g
       id="g45">
      <path
         style="fill:#f7d16c"
         inkscape:connector-curvature="0"
         d="m 7395.7,7602.4 32.7,56.7 281.7,0 -118.4,-205 -55.2,-95.6 -66.9,115.9 z"
         id="polygon47"
         class="st9" />
      <path
         style="fill:#ffc04a"
         inkscape:connector-curvature="0"
         d="m 7710.1,7659.1 44,-64.3 -130.1,-141.3 -87.5,-95 55.2,95.6 z"
         id="polygon49"
         class="st10" />
    </g>
  </g>
  <ellipse
     style="fill:#f7d16c"
     id="circle51"
     cy="720.77057"
     cx="2622.4731"
     class="st9"
     rx="126.01313"
     ry="125.94131" />
  <g
     id="g53"
     transform="matrix(1.0001042,0,0,0.99953416,-5276.1497,-6116.8425)">
    <g
       id="g55">
      <ellipse
         style="opacity:0.95;fill:#ffffff;enable-background:new"
         id="ellipse57"
         ry="37.400002"
         rx="102.5"
         cy="6997.5"
         cx="7352.5"
         class="st11" />
      <g
         id="g59">
        <path
           style="fill:#dbdba4"
           inkscape:connector-curvature="0"
           id="path61"
           d="m 7313.8,7032.1 21.3,21.3 40.7,0 15.5,-21.3 -77.5,0 z m 61.1,16.4 -22.3,0 -5.7,-5.7 37.8,-1.5 -3.2,4.4 -6.6,2.8 z"
           class="st12" />
      </g>
    </g>
    <path
       style="fill:#f1f1f1"
       inkscape:connector-curvature="0"
       d="m 7272.6,6993.6 -7.9,11.9 -30.4,-23.7 12.4,0 z"
       id="polygon63"
       class="st13" />
  </g>
  <g
     style="opacity:0.6"
     id="g65"
     class="st2"
     transform="matrix(1.0001042,0,0,0.99953416,-5276.1497,-6116.8425)">
    <path
       style="fill:#ffc04a"
       inkscape:connector-curvature="0"
       id="path67"
       d="m 7648.4,7930.7 c 0,0 -178.5,-116 -126.9,-176.9 28.7,-33.9 90.3,-55.7 139.3,-68.3 46.1,-11.9 85.2,-42.3 107.9,-84.1 l 30.2,0 c -19.6,42.7 -55.5,75.8 -99.6,92 -48.9,17.8 -106.9,43.4 -109.6,65.1 -4.6,37.8 107.4,87.8 107.4,87.8 l -48.7,84.4 z"
       class="st10" />
    <path
       style="opacity:0.6;fill:#f7d16c;enable-background:new"
       inkscape:connector-curvature="0"
       id="path69"
       d="m 7651,7930.7 c 0,0 -178.5,-116 -126.9,-176.9 28.7,-33.9 90.3,-55.7 139.3,-68.3 46.1,-11.9 85.2,-42.3 107.9,-84.1 l 30.2,0"
       class="st14" />
  </g>
  <g
     id="g71"
     transform="matrix(1.0001042,0,0,0.99953416,-5276.1497,-6116.8425)">
    <path
       style="fill:#ffc04a"
       inkscape:connector-curvature="0"
       d="m 7613.3,7747.5 2.5,18.6 1.3,-1.6 -0.6,-20.2 z"
       id="polygon73"
       class="st10" />
    <g
       id="g75">
      <path
         style="fill:#f7d16c"
         inkscape:connector-curvature="0"
         d="m 7604.3,7734.3 18,0 0,14 -18,0 z"
         id="rect77"
         class="st9" />
      <path
         style="fill:#f7d16c"
         inkscape:connector-curvature="0"
         d="m 7610.8,7748.3 5,0 0,17.8 -5,0 z"
         id="rect79"
         class="st9" />
    </g>
  </g>
  <g
     id="g81"
     transform="matrix(1.0001042,0,0,0.99953416,-5276.1497,-6116.8425)">
    <g
       id="g83">
      <path
         style="fill:#f7d16c"
         inkscape:connector-curvature="0"
         d="m 7649.8,7717.6 6.2,0 0,6.2 -6.2,0 z"
         id="rect85"
         class="st9" />
      <path
         style="fill:#ffc04a"
         inkscape:connector-curvature="0"
         d="m 7658.5,7721.3 -2.5,2.5 0,-6.2 -6.2,0 3.1,-2.4 5.6,0 z"
         id="polygon87"
         class="st10" />
    </g>
    <g
       id="g89">
      <path
         style="fill:#f7d16c"
         inkscape:connector-curvature="0"
         d="m 7657.6,7717.6 6.2,0 0,6.2 -6.2,0 z"
         id="rect91"
         class="st9" />
      <path
         style="fill:#ffc04a"
         inkscape:connector-curvature="0"
         d="m 7666.4,7721.3 -2.6,2.5 0,-6.2 -6.2,0 3.1,-2.4 5.7,0 z"
         id="polygon93"
         class="st10" />
    </g>
    <g
       id="g95">
      <path
         style="fill:#f7d16c"
         inkscape:connector-curvature="0"
         d="m 7665.5,7717.6 6.2,0 0,6.2 -6.2,0 z"
         id="rect97"
         class="st9" />
      <path
         style="fill:#ffc04a"
         inkscape:connector-curvature="0"
         d="m 7674.2,7721.3 -2.6,2.5 0,-6.2 -6.1,0 3,-2.4 5.7,0 z"
         id="polygon99"
         class="st10" />
    </g>
    <g
       id="g101">
      <path
         style="fill:#f7d16c"
         inkscape:connector-curvature="0"
         d="m 7657.6,7709.1 6.2,0 0,6.2 -6.2,0 z"
         id="rect103"
         class="st9" />
      <path
         style="fill:#ffc04a"
         inkscape:connector-curvature="0"
         d="m 7666.4,7712.7 -2.6,2.5 0,-6.1 -6.2,0 3.1,-2.4 5.7,0 z"
         id="polygon105"
         class="st10" />
    </g>
  </g>
</svg>
