<?xml version="1.0" encoding="UTF-8" standalone="no"?>
<!-- Generator: Adobe Illustrator 20.1.0, SVG Export Plug-In . SVG Version: 6.00 Build 0)  -->

<svg
   xmlns:dc="http://purl.org/dc/elements/1.1/"
   xmlns:cc="http://creativecommons.org/ns#"
   xmlns:rdf="http://www.w3.org/1999/02/22-rdf-syntax-ns#"
   xmlns:svg="http://www.w3.org/2000/svg"
   xmlns="http://www.w3.org/2000/svg"
   xmlns:sodipodi="http://sodipodi.sourceforge.net/DTD/sodipodi-0.dtd"
   xmlns:inkscape="http://www.inkscape.org/namespaces/inkscape"
   version="1.1"
   id="图层_1"
   x="0px"
   y="0px"
   viewBox="0 0 3840 2161"
   style="enable-background:new 0 0 3840 2161;"
   xml:space="preserve"
   inkscape:version="0.91 r13725"
   sodipodi:docname="Night-Plain.svg"><metadata
     id="metadata137"><rdf:RDF><cc:Work
         rdf:about=""><dc:format>image/svg+xml</dc:format><dc:type
           rdf:resource="http://purl.org/dc/dcmitype/StillImage" /></cc:Work></rdf:RDF></metadata><defs
     id="defs135" /><sodipodi:namedview
     pagecolor="#ffffff"
     bordercolor="#666666"
     borderopacity="1"
     objecttolerance="10"
     gridtolerance="10"
     guidetolerance="10"
     inkscape:pageopacity="0"
     inkscape:pageshadow="2"
     inkscape:window-width="1920"
     inkscape:window-height="1011"
     id="namedview133"
     showgrid="false"
     inkscape:zoom="0.1092087"
     inkscape:cx="-1431.5434"
     inkscape:cy="-1509.3179"
     inkscape:window-x="0"
     inkscape:window-y="420"
     inkscape:window-maximized="1"
     inkscape:current-layer="图层_1" /><style
     type="text/css"
     id="style3">
	.st0{fill:#001126;}
	.st1{opacity:0.95;fill:#051E2E;enable-background:new    ;}
	.st2{opacity:0.95;fill:#004153;enable-background:new    ;}
	.st3{opacity:0.97;fill:#004657;enable-background:new    ;}
	.st4{opacity:0.97;fill:#06131E;enable-background:new    ;}
	.st5{opacity:0.95;}
	.st6{fill:#0086AB;}
	.st7{fill:#22324C;}
	.st8{fill:#FFFFFF;}
	.st9{font-family:'NotoSans';}
	.st10{font-size:146.96px;}
	.st11{letter-spacing:-1;}
	.st12{opacity:0.6;fill:#CCCCCC;enable-background:new    ;}
	.st13{font-size:115.3px;}
	.st14{fill:none;}
	.st15{fill:#999999;}
	.st16{font-size:37.56px;}
	.st17{fill:#00011F;}
	.st18{opacity:0.45;fill:#1A1A1A;enable-background:new    ;}
</style><title
     id="title5">BK2</title><rect
     style="fill:#001126"
     x="0.40000001"
     y="1.2"
     class="st0"
     width="3839.6001"
     height="2159.8"
     id="rect7" /><polygon
     style="opacity:0.95;fill:#051e2e;enable-background:new"
     class="st1"
     points="2961.1,2161 3840,2159.8 3840,0 2890.6,1.2 653.1,480.4 "
     id="polygon9" /><polygon
     style="opacity:0.95;fill:#004153;enable-background:new"
     class="st2"
     points="2715.8,1209.3 2547.3,1501.2 1618.2,2159.8 0,2159.8 "
     id="polygon11" /><polygon
     style="opacity:0.97000002;fill:#004657;enable-background:new"
     class="st3"
     points="0,2159.8 2640,1340.5 2715.8,1209.3 0,1636.3 "
     id="polygon13" /><polygon
     style="opacity:0.97000002;fill:#06131e;enable-background:new"
     class="st4"
     points="3840,0 3840,2159.8 1849.8,476.5 "
     id="polygon15" /><path
     style="opacity:0.95;fill:#004153;enable-background:new"
     inkscape:connector-curvature="0"
     class="st2"
     d="m 2609.86,1405.437 537.6,-931.1 -1609.5,0 537.6,931.1 c 165.3,-95.3 369,-95.3 534.3,0 z"
     id="path17" /><path
     style="fill:#0086ab"
     inkscape:connector-curvature="0"
     id="path21"
     d="m 2836.96,750.237 c -51.9,8.4 -100.8,-26.9 -109.1,-78.8 -8.4,-51.9 26.9,-100.8 78.8,-109.1 19.8,-3.2 40.2,0 58.1,9 -51.7,-43.5 -128.9,-36.8 -172.4,14.9 -43.5,51.7 -36.8,128.9 14.9,172.4 51.7,43.5 128.9,36.8 172.4,-14.9 8.1,-9.6 14.7,-20.5 19.5,-32.1 -14.8,20.6 -37.2,34.5 -62.2,38.6 z"
     class="st6" /><ellipse
     style="fill:#22324c"
     class="st7"
     cx="1895.76"
     cy="712.237"
     rx="88.800003"
     ry="56.200001"
     id="ellipse23" /><ellipse
     style="fill:#22324c"
     class="st7"
     cx="2015.46"
     cy="689.737"
     rx="69.099998"
     ry="59.5"
     id="ellipse25" /><ellipse
     style="fill:#22324c"
     class="st7"
     cx="1922.76"
     cy="663.33704"
     rx="87.099998"
     ry="48.900002"
     id="ellipse27" /><ellipse
     style="fill:#22324c"
     class="st7"
     cx="2399.8601"
     cy="599.33704"
     rx="39.400002"
     ry="15.1"
     id="ellipse29" /><ellipse
     style="fill:#22324c"
     class="st7"
     cx="2453.0601"
     cy="593.33704"
     rx="30.700001"
     ry="16"
     id="ellipse31" /><ellipse
     style="fill:#22324c"
     transform="matrix(0.31298607,-0.94975772,0.94975772,0.31298607,0,0)"
     class="st7"
     cx="194.58093"
     cy="2485.6836"
     rx="13.100584"
     ry="38.701725"
     id="ellipse33" /><path
     style="fill:#22324c"
     inkscape:connector-curvature="0"
     id="path37"
     d="m 2609.86,1405.437 c -165.4,-95.3 -369,-95.3 -534.4,0 l 267.2,462.7 267.2,-462.7 z"
     class="st7" /><rect
     style="fill:#22324c"
     id="rect39"
     height="315.10001"
     width="315.10001"
     class="st7"
     y="1176.437"
     x="2185.0601" /><rect
     style="fill:#22324c"
     id="rect41"
     height="240.89999"
     width="240.89999"
     class="st7"
     y="964.53705"
     x="2222.26" /><rect
     style="fill:#22324c"
     id="rect43"
     height="158.89999"
     width="158.89999"
     class="st7"
     y="822.43701"
     x="2263.1599" /><rect
     style="fill:#22324c"
     id="rect45"
     height="104.9"
     width="104.9"
     class="st7"
     y="736.43701"
     x="2290.1599" /><polygon
     style="fill:#22324c"
     id="polygon47"
     points="2336.4,713.2 2378.5,755.3 2294.3,755.3 "
     class="st7"
     transform="translate(6.26,-5.363)" /><polygon
     style="fill:#22324c"
     id="polygon49"
     points="2036,1353.2 2092.6,1325.6 2078.3,1298 2019.6,1324.9 "
     class="st7"
     transform="translate(6.26,-5.363)" /><polygon
     style="fill:#22324c"
     id="polygon51"
     points="2120.6,1400.6 2080,1319.3 2076.6,1325.6 2115.3,1400.6 "
     class="st7"
     transform="translate(6.26,-5.363)" /><rect
     style="fill:none"
     x="381.5"
     y="663"
     class="st14"
     width="901.29999"
     height="162.89999"
     id="rect61" /><path
     style="fill:#00011f"
     inkscape:connector-curvature="0"
     class="st17"
     d="M 3195.2,0"
     id="path129" /><g
     inkscape:groupmode="layer"
     id="layer1"
     inkscape:label="Layer 1" /><g
     inkscape:groupmode="layer"
     id="layer2"
     inkscape:label="Layer 2"
     style="display:inline"><rect
       style="opacity:0.45;fill:#1a1a1a;enable-background:new"
       x="0.2"
       y="0.60000002"
       class="st18"
       width="3839.6001"
       height="2159.8"
       id="rect131" /></g></svg>