<?xml version="1.0" encoding="UTF-8" standalone="no"?>
<!-- Generator: Adobe Illustrator 20.1.0, SVG Export Plug-In . SVG Version: 6.00 Build 0)  -->

<svg
   xmlns:dc="http://purl.org/dc/elements/1.1/"
   xmlns:cc="http://creativecommons.org/ns#"
   xmlns:rdf="http://www.w3.org/1999/02/22-rdf-syntax-ns#"
   xmlns:svg="http://www.w3.org/2000/svg"
   xmlns="http://www.w3.org/2000/svg"
   xmlns:sodipodi="http://sodipodi.sourceforge.net/DTD/sodipodi-0.dtd"
   xmlns:inkscape="http://www.inkscape.org/namespaces/inkscape"
   version="1.1"
   id="图层_1"
   x="0px"
   y="0px"
   viewBox="0 0 3840 2161"
   style="enable-background:new 0 0 3840 2161;"
   xml:space="preserve"
   inkscape:version="0.91 r13725"
   sodipodi:docname="Night.svg"><metadata
     id="metadata137"><rdf:RDF><cc:Work
         rdf:about=""><dc:format>image/svg+xml</dc:format><dc:type
           rdf:resource="http://purl.org/dc/dcmitype/StillImage" /></cc:Work></rdf:RDF></metadata><defs
     id="defs135" /><sodipodi:namedview
     pagecolor="#ffffff"
     bordercolor="#666666"
     borderopacity="1"
     objecttolerance="10"
     gridtolerance="10"
     guidetolerance="10"
     inkscape:pageopacity="0"
     inkscape:pageshadow="2"
     inkscape:window-width="1920"
     inkscape:window-height="1011"
     id="namedview133"
     showgrid="false"
     inkscape:zoom="0.2184174"
     inkscape:cx="915.44606"
     inkscape:cy="846.38638"
     inkscape:window-x="0"
     inkscape:window-y="420"
     inkscape:window-maximized="1"
     inkscape:current-layer="layer2"
     showguides="false" /><style
     type="text/css"
     id="style3">
	.st0{fill:#001126;}
	.st1{opacity:0.95;fill:#051E2E;enable-background:new    ;}
	.st2{opacity:0.95;fill:#004153;enable-background:new    ;}
	.st3{opacity:0.97;fill:#004657;enable-background:new    ;}
	.st4{opacity:0.97;fill:#06131E;enable-background:new    ;}
	.st5{opacity:0.95;}
	.st6{fill:#0086AB;}
	.st7{fill:#22324C;}
	.st8{fill:#FFFFFF;}
	.st9{font-family:'NotoSans';}
	.st10{font-size:146.96px;}
	.st11{letter-spacing:-1;}
	.st12{opacity:0.6;fill:#CCCCCC;enable-background:new    ;}
	.st13{font-size:115.3px;}
	.st14{fill:none;}
	.st15{fill:#999999;}
	.st16{font-size:37.56px;}
	.st17{fill:#00011F;}
	.st18{opacity:0.45;fill:#1A1A1A;enable-background:new    ;}
</style><title
     id="title5">BK2</title><rect
     x="0.4"
     y="1.2"
     class="st0"
     width="3839.6"
     height="2159.8"
     id="rect7" /><polygon
     class="st1"
     points="2890.6,1.2 653.1,480.4 2961.1,2161 3840,2159.8 3840,0 "
     id="polygon9" /><polygon
     class="st2"
     points="1618.2,2159.8 0,2159.8 2715.8,1209.3 2547.3,1501.2 "
     id="polygon11" /><polygon
     class="st3"
     points="2715.8,1209.3 0,1636.3 0,2159.8 2640,1340.5 "
     id="polygon13" /><polygon
     class="st4"
     points="3840,2159.8 1849.8,476.5 3840,0 "
     id="polygon15" /><path
     class="st2"
     d="m 2609.86,1405.437 537.6,-931.1 -1609.5,0 537.6,931.1 c 165.3,-95.3 369,-95.3 534.3,0 z"
     id="path17"
     inkscape:connector-curvature="0"
     style="opacity:0.95;fill:#004153;enable-background:new" /><g
     class="st5"
     id="g19"
     transform="translate(6.26,-5.363)"
     style="opacity:0.95"><path
       class="st6"
       d="m 2830.7,755.6 c -51.9,8.4 -100.8,-26.9 -109.1,-78.8 -8.4,-51.9 26.9,-100.8 78.8,-109.1 19.8,-3.2 40.2,0 58.1,9 -51.7,-43.5 -128.9,-36.8 -172.4,14.9 -43.5,51.7 -36.8,128.9 14.9,172.4 51.7,43.5 128.9,36.8 172.4,-14.9 8.1,-9.6 14.7,-20.5 19.5,-32.1 -14.8,20.6 -37.2,34.5 -62.2,38.6 z"
       id="path21"
       inkscape:connector-curvature="0"
       style="fill:#0086ab" /></g><ellipse
     class="st7"
     cx="1895.76"
     cy="712.237"
     rx="88.800003"
     ry="56.200001"
     id="ellipse23"
     style="fill:#22324c" /><ellipse
     class="st7"
     cx="2015.46"
     cy="689.737"
     rx="69.099998"
     ry="59.5"
     id="ellipse25"
     style="fill:#22324c" /><ellipse
     class="st7"
     cx="1922.76"
     cy="663.33704"
     rx="87.099998"
     ry="48.900002"
     id="ellipse27"
     style="fill:#22324c" /><ellipse
     class="st7"
     cx="2399.8601"
     cy="599.33704"
     rx="39.400002"
     ry="15.1"
     id="ellipse29"
     style="fill:#22324c" /><ellipse
     class="st7"
     cx="2453.0601"
     cy="593.33704"
     rx="30.700001"
     ry="16"
     id="ellipse31"
     style="fill:#22324c" /><ellipse
     transform="matrix(0.31298607,-0.94975772,0.94975772,0.31298607,0,0)"
     class="st7"
     cx="194.58093"
     cy="2485.6836"
     rx="13.100584"
     ry="38.701725"
     id="ellipse33"
     style="fill:#22324c" /><g
     id="g35"
     transform="translate(6.26,-5.363)"><path
       class="st7"
       d="m 2603.6,1410.8 c -165.4,-95.3 -369,-95.3 -534.4,0 l 267.2,462.7 267.2,-462.7 z"
       id="path37"
       inkscape:connector-curvature="0"
       style="fill:#22324c" /><rect
       x="2178.8"
       y="1181.8"
       class="st7"
       width="315.10001"
       height="315.10001"
       id="rect39"
       style="fill:#22324c" /><rect
       x="2216"
       y="969.90002"
       class="st7"
       width="240.89999"
       height="240.89999"
       id="rect41"
       style="fill:#22324c" /><rect
       x="2256.8999"
       y="827.79999"
       class="st7"
       width="158.89999"
       height="158.89999"
       id="rect43"
       style="fill:#22324c" /><rect
       x="2283.8999"
       y="741.79999"
       class="st7"
       width="104.9"
       height="104.9"
       id="rect45"
       style="fill:#22324c" /><polygon
       class="st7"
       points="2294.3,755.3 2336.4,713.2 2378.5,755.3 "
       id="polygon47"
       style="fill:#22324c" /><polygon
       class="st7"
       points="2036,1353.2 2092.6,1325.6 2078.3,1298 2019.6,1324.9 "
       id="polygon49"
       style="fill:#22324c" /><polygon
       class="st7"
       points="2120.6,1400.6 2080,1319.3 2076.6,1325.6 2115.3,1400.6 "
       id="polygon51"
       style="fill:#22324c" /></g><rect
     x="381.5"
     y="663"
     class="st14"
     width="901.3"
     height="162.9"
     id="rect61" /><path
     class="st17"
     d="M3195.2,0"
     id="path129" /><g
     inkscape:groupmode="layer"
     id="layer1"
     inkscape:label="Layer 1"><text
       style="enable-background:new 0 0 3840 2161;font-weight:400;font-size:37.54320908px;line-height:139.99999762%;font-family:'Noto Sans';-inkscape-font-specification:'Noto Sans, Normal';text-align:start;letter-spacing:0;word-spacing:0;fill:#f2f2f2"
       x="388.96448"
       y="703.37024"
       id="text3421"
       font-weight="400"
       font-size="37.55"
       letter-spacing="0"
       word-spacing="0"
       sodipodi:linespacing="140%"
       transform="scale(1.0002851,0.99971498)"><tspan
         style="line-height:139.99999762%;-inkscape-font-specification:'Noto Sans, Normal';text-align:start;letter-spacing:0.37693182"
         x="388.96448"
         y="703.37024"
         id="tspan3394"
         letter-spacing=".377">GNU/0.0 (Systemd; AOSC OS; Linux ARCHIT; rv: RV)</tspan><tspan
         style="line-height:139.99999762%;-inkscape-font-specification:'Noto Sans, Normal';text-align:start;letter-spacing:0.37693182"
         x="388.96448"
         y="755.93073"
         id="tspan3398"
         letter-spacing=".377">(Stable, Mainline) AOSC/REL_DATE Core/COREV</tspan></text>
<g
       style="enable-background:new 0 0 3840 2161"
       id="g3450"
       transform="translate(-226.05318,-587.9132)"><text
         y="1187.8369"
         x="615.59167"
         transform="scale(1.0002851,0.99971498)"
         class="st15 st16 st17"
         id="text109"
         font-size="146.96"
         style="font-size:146.9334259px;font-family:'Noto Sans';fill:#ffffff">AOSC OS</text>
<path
         class="st18"
         d="m 1494.0857,1196.4372 -183.019,0 c -12.8014,0 -23.2025,-10.3952 -23.2025,-23.0893 l 0,-77.8637 c 0,-12.794 10.4011,-23.1892 23.2025,-23.1892 l 183.019,0 c 12.8014,0 23.2025,10.3952 23.2025,23.1892 l 0,77.8637 c -0.1001,12.7941 -10.5011,23.0893 -23.2025,23.0893 z"
         id="path111"
         inkscape:connector-curvature="0"
         style="opacity:0.6;fill:#cccccc;enable-background:new" /><text
         y="1174.5443"
         x="1323.6655"
         transform="scale(1.0002851,0.99971498)"
         class="st15 st16 st19"
         id="text113"
         font-size="115.296"
         style="font-size:115.27514648px;font-family:'Noto Sans';fill:#ffffff">REL</text>
</g></g><g
     inkscape:groupmode="layer"
     id="layer2"
     inkscape:label="Layer 2"
     style="display:inline"><rect
       style="opacity:0.45;fill:#1a1a1a;enable-background:new"
       x="0.2"
       y="0.60000002"
       class="st18"
       width="3839.6001"
       height="2159.8"
       id="rect131" /></g></svg>