<?xml version="1.0" encoding="UTF-8" standalone="no"?>
<!-- Generator: Adobe Illustrator 20.1.0, SVG Export Plug-In . SVG Version: 6.00 Build 0)  -->

<svg
   xmlns:dc="http://purl.org/dc/elements/1.1/"
   xmlns:cc="http://creativecommons.org/ns#"
   xmlns:rdf="http://www.w3.org/1999/02/22-rdf-syntax-ns#"
   xmlns:svg="http://www.w3.org/2000/svg"
   xmlns="http://www.w3.org/2000/svg"
   xmlns:xlink="http://www.w3.org/1999/xlink"
   xmlns:sodipodi="http://sodipodi.sourceforge.net/DTD/sodipodi-0.dtd"
   xmlns:inkscape="http://www.inkscape.org/namespaces/inkscape"
   version="1.1"
   x="0px"
   y="0px"
   viewBox="0 0 3097.7 2323.3"
   xml:space="preserve"
   id="svg2"
   inkscape:version="0.91 r13725"
   sodipodi:docname="Day.svg"
   width="3097.7"
   height="2323.3"><metadata
     id="metadata200"><rdf:RDF><cc:Work
         rdf:about=""><dc:format>image/svg+xml</dc:format><dc:type
           rdf:resource="http://purl.org/dc/dcmitype/StillImage" /><dc:title /></cc:Work></rdf:RDF></metadata><defs
     id="defs198" /><sodipodi:namedview
     pagecolor="#ffffff"
     bordercolor="#666666"
     borderopacity="1"
     objecttolerance="10"
     gridtolerance="10"
     guidetolerance="10"
     inkscape:pageopacity="0"
     inkscape:pageshadow="2"
     inkscape:window-width="1080"
     inkscape:window-height="1883"
     id="namedview196"
     showgrid="false"
     fit-margin-top="0"
     fit-margin-left="0"
     fit-margin-right="0"
     fit-margin-bottom="0"
     inkscape:zoom="0.52444445"
     inkscape:cx="748.79042"
     inkscape:cy="1056.0328"
     inkscape:window-x="1920"
     inkscape:window-y="0"
     inkscape:window-maximized="1"
     inkscape:current-layer="svg2" /><style
     type="text/css"
     id="style4">
	.st0{clip-path:url(#SVGID_2_);}
	.st1{fill:#00657F;}
	.st2{opacity:0.2;fill:#60E6FF;enable-background:new    ;}
	.st3{opacity:0.6;}
	.st4{opacity:0.95;fill:#2ED3FF;enable-background:new    ;}
	.st5{opacity:0.97;fill:#03DFFF;enable-background:new    ;}
	.st6{opacity:0.6;fill:#01E6FF;enable-background:new    ;}
	.st7{opacity:0.95;fill:#B3E0F8;enable-background:new    ;}
	.st8{opacity:0.97;fill:#B3E0F8;enable-background:new    ;}
	.st9{fill:#F39A4F;}
	.st10{fill:#F7D16C;}
	.st11{fill:#FFC04A;}
	.st12{opacity:0.95;fill:#FFFFFF;enable-background:new    ;}
	.st13{fill:#DBDBA4;}
	.st14{fill:#F1F1F1;}
	.st15{opacity:0.6;fill:#F7D16C;enable-background:new    ;}
	.st16{fill:#FFFFFF;}
	.st17{font-family:'Noto Sans';}
	.st18{font-size:142.2681px;}
	.st19{opacity:0.6;fill:#CCCCCC;enable-background:new    ;}
	.st20{font-size:111.615px;}
	.st21{fill:none;}
	.st22{fill:#F2F2F2;}
	.st23{font-size:36.3567px;}
	.st24{letter-spacing:1;}
</style><g
     id="g10"
     transform="translate(-5798.1001,-5956.2002)"><defs
       id="defs12"><rect
         height="2323.3"
         width="3097.7"
         y="5956.2002"
         x="5798.1001"
         id="SVGID_1_" /></defs><clipPath
       id="SVGID_2_"><use
         height="100%"
         width="100%"
         y="0"
         x="0"
         id="use16"
         style="overflow:visible"
         xlink:href="#SVGID_1_" /></clipPath><g
       clip-path="url(#SVGID_2_)"
       id="g18"
       class="st0"><rect
         style="fill:#00657f"
         id="rect20"
         height="2323.3"
         width="3839.6001"
         class="st1"
         y="5956.2002"
         x="5275.6001" /><polygon
         style="opacity:0.2;fill:#60e6ff;enable-background:new"
         id="polygon22"
         points="8292.6,5956.8 5928.3,6600.1 8236.3,8280.7 9115.2,8279.5 9115.2,5956.2 "
         class="st2" /><g
         style="opacity:0.6"
         id="g24"
         class="st3"><polygon
           style="opacity:0.95;fill:#2ed3ff;enable-background:new"
           id="polygon26"
           points="5275.6,8279.5 7991.4,7329 7822.9,7620.9 6893.8,8279.5 "
           class="st4" /><polygon
           style="opacity:0.97000002;fill:#03dfff;enable-background:new"
           id="polygon28"
           points="5275.6,7756 5275.6,8279.5 7915.6,7460.2 7991.4,7329 "
           class="st5" /></g><polygon
         style="opacity:0.6;fill:#01e6ff;enable-background:new"
         id="polygon30"
         points="9115.2,5956.2 9124.4,8279.5 7134.2,6596.2 "
         class="st6" /></g></g><g
     id="g32"
     transform="translate(-5798.1001,-5956.2002)"><g
       id="g34"><path
         style="opacity:0.95;fill:#b3e0f8;enable-background:new"
         inkscape:connector-curvature="0"
         id="path36"
         d="M 7618.1,7987.7 7817.7,7642 7618.1,7987.7 Z"
         class="st7" /><path
         style="opacity:0.97000002;fill:#b3e0f8;enable-background:new"
         inkscape:connector-curvature="0"
         id="path38"
         d="m 7536.5,7358.5 87.5,95 c 95.1,1 184.2,26.9 261.2,71.5 l 537.6,-931.1 -1609.4,0 537.6,931.1 c 37,-21.4 76.7,-38.5 118.6,-50.6 l 66.9,-115.9 z"
         class="st8" /><polygon
         style="fill:#f39a4f"
         id="polygon40"
         points="7351,7525 7395.7,7602.4 7395.7,7602.4 7351,7525 "
         class="st9" /><path
         style="fill:#f39a4f"
         inkscape:connector-curvature="0"
         id="path42"
         d="m 7885.3,7525 -67.6,117 67.6,-117 z"
         class="st9" /><polygon
         style="fill:#f39a4f"
         id="polygon44"
         points="7618.1,7987.7 7428.4,7659.1 7618.1,7987.7 "
         class="st9" /><g
         id="g46"><path
           style="fill:#f39a4f"
           inkscape:connector-curvature="0"
           id="path48"
           d="m 7624,7453.5 130.1,141.3 -44,64.3 -281.7,0 189.7,328.6 199.6,-345.7 67.6,-117 c -77,-44.6 -166.2,-70.5 -261.3,-71.5 z"
           class="st9" /><path
           style="fill:#f39a4f"
           inkscape:connector-curvature="0"
           id="path50"
           d="m 7351,7525 44.7,77.4 73.9,-128 c -41.9,12.1 -81.7,29.2 -118.6,50.6 z"
           class="st9" /></g><polygon
         style="fill:#f7d16c"
         id="polygon52"
         points="7395.7,7602.4 7428.4,7659.1 7428.4,7659.1 7395.7,7602.4 "
         class="st10" /><g
         id="g54"><polygon
           style="fill:#f7d16c"
           id="polygon56"
           points="7645.3,7572.6 7726.9,7431.3 7808.5,7572.6 "
           class="st10" /><polygon
           style="fill:#ffc04a"
           id="polygon58"
           points="7808.5,7572.6 7726.9,7431.3 7833.1,7532.1 "
           class="st11" /></g><g
         id="g60"><polygon
           style="fill:#f7d16c"
           id="polygon62"
           points="7710.1,7659.1 7591.7,7454.1 7536.5,7358.5 7469.6,7474.4 7395.7,7602.4 7428.4,7659.1 "
           class="st10" /><polygon
           style="fill:#ffc04a"
           id="polygon64"
           points="7624,7453.5 7536.5,7358.5 7591.7,7454.1 7710.1,7659.1 7754.1,7594.8 "
           class="st11" /></g></g><circle
       style="fill:#f7d16c"
       id="circle66"
       r="126"
       cy="6840.7998"
       cx="7897.7998"
       class="st10" /><g
       id="g68"><g
         id="g70"><ellipse
           style="opacity:0.95;fill:#ffffff;enable-background:new"
           id="ellipse72"
           ry="37.400002"
           rx="102.5"
           cy="6997.5"
           cx="7352.5"
           class="st12" /><g
           id="g74"><path
             style="fill:#dbdba4"
             inkscape:connector-curvature="0"
             id="path76"
             d="m 7313.8,7032.1 21.3,21.3 40.7,0 15.5,-21.3 -77.5,0 z m 61.1,16.4 -22.3,0 -5.7,-5.7 37.8,-1.5 -3.2,4.4 -6.6,2.8 z"
             class="st13" /></g></g><polygon
         style="fill:#f1f1f1"
         id="polygon78"
         points="7234.3,6981.8 7246.7,6981.8 7272.6,6993.6 7264.7,7005.5 "
         class="st14" /></g><g
       style="opacity:0.6"
       id="g80"
       class="st3"><path
         style="fill:#ffc04a"
         inkscape:connector-curvature="0"
         id="path82"
         d="m 7648.4,7930.7 c 0,0 -178.5,-116 -126.9,-176.9 28.7,-33.9 90.3,-55.7 139.3,-68.3 46.1,-11.9 85.2,-42.3 107.9,-84.1 l 0,0 30.2,0 0,0 c -19.6,42.7 -55.5,75.8 -99.6,92 -48.9,17.8 -106.9,43.4 -109.6,65.1 -4.6,37.8 107.4,87.8 107.4,87.8 l -48.7,84.4 z"
         class="st11" /><path
         style="opacity:0.6;fill:#f7d16c;enable-background:new"
         inkscape:connector-curvature="0"
         id="path84"
         d="m 7651,7930.7 c 0,0 -178.5,-116 -126.9,-176.9 28.7,-33.9 90.3,-55.7 139.3,-68.3 46.1,-11.9 85.2,-42.3 107.9,-84.1 l 0,0 30.2,0 0,0 c -19.6,42.7 -55.4,75.8 -99.6,92 -48.9,17.8 -106.9,43.4 -109.6,65.1 -4.6,37.8 107.4,87.8 107.4,87.8 l -48.7,84.4 z"
         class="st15" /></g><g
       id="g86"><polygon
         style="fill:#ffc04a"
         id="polygon88"
         points="7617.1,7764.5 7616.5,7744.3 7613.3,7747.5 7615.8,7766.1 "
         class="st11" /><g
         id="g90"><rect
           style="fill:#f7d16c"
           id="rect92"
           height="14"
           width="18"
           class="st10"
           y="7734.2998"
           x="7604.2998" /><rect
           style="fill:#f7d16c"
           id="rect94"
           height="17.799999"
           width="5"
           class="st10"
           y="7748.2998"
           x="7610.7998" /></g></g><g
       id="g96"><g
         id="g98"><rect
           style="fill:#f7d16c"
           id="rect100"
           height="6.1999998"
           width="6.1999998"
           class="st10"
           y="7717.6001"
           x="7649.7998" /><polygon
           style="fill:#ffc04a"
           id="polygon102"
           points="7656,7717.6 7649.8,7717.6 7652.9,7715.2 7658.5,7715.2 7658.5,7721.3 7656,7723.8 "
           class="st11" /></g><g
         id="g104"><rect
           style="fill:#f7d16c"
           id="rect106"
           height="6.1999998"
           width="6.1999998"
           class="st10"
           y="7717.6001"
           x="7657.6001" /><polygon
           style="fill:#ffc04a"
           id="polygon108"
           points="7663.8,7717.6 7657.6,7717.6 7660.7,7715.2 7666.4,7715.2 7666.4,7721.3 7663.8,7723.8 "
           class="st11" /></g><g
         id="g110"><rect
           style="fill:#f7d16c"
           id="rect112"
           height="6.1999998"
           width="6.1999998"
           class="st10"
           y="7717.6001"
           x="7665.5" /><polygon
           style="fill:#ffc04a"
           id="polygon114"
           points="7671.6,7717.6 7665.5,7717.6 7668.5,7715.2 7674.2,7715.2 7674.2,7721.3 7671.6,7723.8 "
           class="st11" /></g><g
         id="g116"><rect
           style="fill:#f7d16c"
           id="rect118"
           height="6.1999998"
           width="6.1999998"
           class="st10"
           y="7709.1001"
           x="7657.6001" /><polygon
           style="fill:#ffc04a"
           id="polygon120"
           points="7663.8,7709.1 7657.6,7709.1 7660.7,7706.7 7666.4,7706.7 7666.4,7712.7 7663.8,7715.2 "
           class="st11" /></g></g></g><g
     id="g122"
     transform="translate(-5798.1001,-5956.2002)"><text
       style="font-size:142.26809692px;font-family:'Noto Sans';fill:#ffffff"
       id="text124"
       class="st16 st17 st18"
       transform="translate(5937.9731,7955.5332)">AOSC OS</text>
<path
       style="opacity:0.6;fill:#cccccc;enable-background:new"
       inkscape:connector-curvature="0"
       id="path126"
       d="m 6788.2,7964.2 -177.2,0 c -12.4,0 -22.5,-10.1 -22.5,-22.4 l 0,-75.4 c 0,-12.4 10.1,-22.5 22.5,-22.5 l 177.2,0 c 12.4,0 22.5,10.1 22.5,22.5 l 0,75.4 c -0.2,12.4 -10.2,22.4 -22.5,22.4 z"
       class="st19" /><text
       style="font-size:111.61499786px;font-family:'Noto Sans';fill:#ffffff"
       id="text128"
       class="st16 st17 st20"
       transform="translate(6623.5649,7942.6621)">REL</text>
</g><text
     style="font-weight:400;font-size:37.54320908px;line-height:139.99999762%;font-family:'Noto Sans';-inkscape-font-specification:'Noto Sans, Normal';text-align:start;letter-spacing:0;word-spacing:0;fill:#f2f2f2;fill-opacity:1"
     x="138.37772"
     y="2076.3254"
     id="text3421"
     font-weight="400"
     font-size="37.55"
     letter-spacing="0"
     word-spacing="0"
     sodipodi:linespacing="140%"
     transform="scale(1.0002851,0.99971498)"><tspan
       sodipodi:role="line"
       id="tspan4495"
       style="font-style:normal;font-variant:normal;font-weight:normal;font-stretch:normal;font-size:36.34999847px;line-height:139.99999762%;font-family:'Noto Sans';-inkscape-font-specification:'Noto Sans, Normal';text-align:start;letter-spacing:0.321253;writing-mode:lr-tb;text-anchor:start"
       x="138.37772"
       y="2076.3254">GNU/0.0 (Systemd; AOSC OS; Linux ARCHIT; rv: RV)</tspan><tspan
       sodipodi:role="line"
       id="tspan4497"
       style="font-style:normal;font-variant:normal;font-weight:normal;font-stretch:normal;font-size:36.34999847px;line-height:139.99999762%;font-family:'Noto Sans';-inkscape-font-specification:'Noto Sans, Normal';text-align:start;letter-spacing:0.321253;writing-mode:lr-tb;text-anchor:start"
       x="138.37772"
       y="2127.2153">(Stable, Mainline) AOSC/REL_DATE Core/COREV</tspan></text>
</svg>