<?xml version="1.0" encoding="UTF-8" standalone="no"?>
<!-- Generator: Adobe Illustrator 20.1.0, SVG Export Plug-In . SVG Version: 6.00 Build 0)  -->

<svg
   xmlns:dc="http://purl.org/dc/elements/1.1/"
   xmlns:cc="http://creativecommons.org/ns#"
   xmlns:rdf="http://www.w3.org/1999/02/22-rdf-syntax-ns#"
   xmlns:svg="http://www.w3.org/2000/svg"
   xmlns="http://www.w3.org/2000/svg"
   xmlns:xlink="http://www.w3.org/1999/xlink"
   xmlns:sodipodi="http://sodipodi.sourceforge.net/DTD/sodipodi-0.dtd"
   xmlns:inkscape="http://www.inkscape.org/namespaces/inkscape"
   version="1.1"
   id="图层_1"
   x="0px"
   y="0px"
   viewBox="0 0 3097.7 2323.3"
   xml:space="preserve"
   inkscape:version="0.91 r13725"
   sodipodi:docname="Night-Plain.svg"
   inkscape:export-filename="/home/jeffbai/下载/Telegram Desktop/Product/43/Night3.png"
   inkscape:export-xdpi="18.59"
   inkscape:export-ydpi="18.59"
   width="3097.7"
   height="2323.3"><metadata
     id="metadata151"><rdf:RDF><cc:Work
         rdf:about=""><dc:format>image/svg+xml</dc:format><dc:type
           rdf:resource="http://purl.org/dc/dcmitype/StillImage" /><dc:title>BK2</dc:title></cc:Work></rdf:RDF></metadata><defs
     id="defs149"><defs
       id="defs9"><rect
         height="2323.3"
         width="3097.7"
         id="SVGID_1_"
         x="0"
         y="0" /></defs><clipPath
       id="SVGID_2_"><use
         id="use13"
         style="overflow:visible"
         xlink:href="#SVGID_1_"
         x="0"
         y="0"
         width="100%"
         height="100%" /></clipPath></defs><sodipodi:namedview
     pagecolor="#ffffff"
     bordercolor="#666666"
     borderopacity="1"
     objecttolerance="10"
     gridtolerance="10"
     guidetolerance="10"
     inkscape:pageopacity="0"
     inkscape:pageshadow="2"
     inkscape:window-width="1080"
     inkscape:window-height="1883"
     id="namedview147"
     showgrid="false"
     inkscape:zoom="0.071790581"
     inkscape:cx="3011.2079"
     inkscape:cy="185.43576"
     inkscape:window-x="1920"
     inkscape:window-y="0"
     inkscape:window-maximized="1"
     inkscape:current-layer="layer3" /><style
     type="text/css"
     id="style3">
	.st0{clip-path:url(#SVGID_2_);}
	.st1{fill:#001126;}
	.st2{opacity:0.95;fill:#051E2E;enable-background:new    ;}
	.st3{opacity:0.6;}
	.st4{opacity:0.95;fill:#004153;enable-background:new    ;}
	.st5{opacity:0.97;fill:#004657;enable-background:new    ;}
	.st6{opacity:0.97;fill:#06131E;enable-background:new    ;}
	.st7{fill:#FFFFFF;}
	.st8{font-family:'NotoSans';}
	.st9{font-size:142.2681px;}
	.st10{opacity:0.6;fill:#CCCCCC;enable-background:new    ;}
	.st11{font-size:111.615px;}
	.st12{fill:none;}
	.st13{fill:#F2F2F2;}
	.st14{font-size:36.3567px;}
	.st15{letter-spacing:1;}
	.st16{fill:#22324C;}
	.st17{opacity:0.95;}
	.st18{fill:#0086AB;}
	.st19{fill:#009DD9;}
	.st20{opacity:0.45;fill:#1A1A1A;enable-background:new    ;}
</style><title
     id="title5">BK2</title><g
     inkscape:groupmode="layer"
     id="layer3"
     inkscape:label="Layer 2"
     transform="translate(0,-1.19995)"><rect
       x="-522.5"
       class="st1"
       width="3839.6001"
       height="2323.3"
       id="rect17"
       y="2"
       style="fill:#001126" /><polygon
       class="st2"
       points="3317.1,2323.3 3317.1,0 2494.6,0.6 130.2,643.9 2438.2,2324.5 "
       id="polygon19"
       style="opacity:0.95;fill:#051e2e;enable-background:new"
       transform="translate(0,2)" /><g
       class="st3"
       id="g21"
       style="opacity:0.6"><polygon
         class="st4"
         points="2024.8,1664.7 1095.7,2323.3 -522.5,2323.3 2193.3,1372.8 "
         id="polygon23"
         style="opacity:0.95;fill:#004153;enable-background:new" /><polygon
         class="st5"
         points="2117.5,1504 2193.3,1372.8 -522.5,1799.8 -522.5,2323.3 "
         id="polygon25"
         style="opacity:0.97000002;fill:#004657;enable-background:new" /></g><polygon
       class="st6"
       points="1336.1,640 3317.1,0 3326.3,2323.3 "
       id="polygon27"
       style="opacity:0.97000002;fill:#06131e;enable-background:new" /><path
       style="opacity:0.95;fill:#004153;enable-background:new"
       inkscape:connector-curvature="0"
       id="path105"
       d="m 2087.4,1568.8 537.6,-931.1 -1609.5,0 537.6,931.1 c 165.3,-95.4 368.9,-95.4 534.3,0 z"
       class="st4" /><path
       style="fill:#22324c"
       inkscape:connector-curvature="0"
       id="path107"
       d="m 2087.4,1568.8 c -165.4,-95.3 -369,-95.3 -534.4,0 l 267.2,462.7 267.2,-462.7 z"
       class="st16" /><rect
       style="fill:#22324c"
       id="rect109"
       height="315.10001"
       width="315.10001"
       class="st16"
       y="1339.8"
       x="1662.6" /><rect
       style="fill:#22324c"
       id="rect111"
       height="240.89999"
       width="240.89999"
       class="st16"
       y="1127.9"
       x="1699.8" /><rect
       style="fill:#22324c"
       id="rect113"
       height="158.89999"
       width="158.89999"
       class="st16"
       y="985.79999"
       x="1740.7" /><rect
       style="fill:#22324c"
       id="rect115"
       height="104.9"
       width="104.9"
       class="st16"
       y="899.79999"
       x="1767.7" /><polygon
       style="fill:#22324c"
       id="polygon117"
       points="1778.1,913.3 1820.2,871.2 1862.3,913.3 "
       class="st16" /><g
       style="opacity:0.95"
       id="g119"
       class="st17"><path
         style="fill:#0086ab"
         inkscape:connector-curvature="0"
         id="path121"
         d="m 2314.5,913.6 c -51.9,8.4 -100.8,-26.9 -109.1,-78.8 -8.4,-51.9 26.9,-100.8 78.8,-109.1 19.8,-3.2 40.2,0 58.1,9 -51.7,-43.5 -128.9,-36.8 -172.4,14.9 -43.5,51.7 -36.9,128.9 14.9,172.4 51.7,43.5 128.9,36.8 172.4,-14.9 8.1,-9.6 14.7,-20.5 19.5,-32.1 -14.8,20.6 -37.2,34.5 -62.2,38.6 z"
         class="st18" /></g><ellipse
       style="fill:#22324c"
       id="ellipse123"
       ry="56.200001"
       rx="88.800003"
       cy="875.59998"
       cx="1373.3"
       class="st16" /><ellipse
       style="fill:#22324c"
       id="ellipse125"
       ry="59.5"
       rx="69.099998"
       cy="853.09998"
       cx="1493"
       class="st16" /><ellipse
       style="fill:#22324c"
       id="ellipse127"
       ry="48.900002"
       rx="87.099998"
       cy="826.70001"
       cx="1400.3"
       class="st16" /><ellipse
       style="fill:#22324c"
       id="ellipse129"
       ry="15.1"
       rx="39.400002"
       cy="762.70001"
       cx="1877.4"
       class="st16" /><ellipse
       style="fill:#22324c"
       id="ellipse131"
       ry="16"
       rx="30.700001"
       cy="756.70001"
       cx="1930.6"
       class="st16" /><ellipse
       style="fill:#22324c"
       id="ellipse133"
       ry="38.701725"
       rx="13.100584"
       cy="2040.6348"
       cx="-124.07568"
       class="st16"
       transform="matrix(0.31298607,-0.94975772,0.94975772,0.31298607,0,0)" /><polygon
       style="fill:#22324c"
       id="polygon135"
       points="1503.4,1482.9 1519.8,1511.2 1576.4,1483.6 1562.1,1456 "
       class="st16" /><polygon
       style="fill:#22324c"
       id="polygon137"
       points="1599.1,1558.6 1604.4,1558.6 1563.8,1477.3 1560.4,1483.6 "
       class="st16" /></g><g
     inkscape:groupmode="layer"
     id="layer1"
     inkscape:label="Layer 1"
     style="display:inline"
     transform="translate(0,-1.19995)"><rect
       style="opacity:0.45;fill:#1a1a1a;enable-background:new"
       class="st20"
       width="3097.7"
       height="2323.3"
       id="rect145"
       x="0"
       y="2" /></g></svg>